<svg xmlns="http://www.w3.org/2000/svg" viewBox="0 76.874 160 6.251" enable-background="new 0 76.874 160 6.251"><path d="M77.938 79.653H1.518v.883h76.46c-.022-.294-.034-.588-.04-.883z" fill="#7EA8D3"/><path d="M80.446 79.653c.008.295.023.59.05.883h77.757v-.883H80.446z" fill="#6E7274"/><circle cx="3.031" cy="80.095" r="3.031" fill="#7EA8D3"/><circle cx="3.031" cy="80.095" r="1.884" fill="#D2E3E6" stroke="#fff" stroke-miterlimit="10"/><circle cx="27.662" cy="80.095" r="3.031" fill="#7EA8D3"/><circle cx="27.662" cy="80.095" r="1.884" fill="#D2E3E6" stroke="#fff" stroke-miterlimit="10"/><circle cx="54.447" cy="80.095" r="3.031" fill="#7EA8D3"/><circle cx="54.447" cy="80.095" r="1.884" fill="#D2E3E6" stroke="#fff" stroke-miterlimit="10"/><circle cx="79.885" cy="80.095" r="3.031" fill="#7EA8D3"/><circle cx="79.885" cy="80.095" r="1.884" fill="#D2E3E6" stroke="#fff" stroke-miterlimit="10"/><circle cx="105.671" cy="80.095" r="3.031" fill="#6E7274"/><circle cx="105.671" cy="80.095" r="1.884" fill="#AFAFB0" stroke="#fff" stroke-miterlimit="10"/><circle cx="131.284" cy="79.905" r="3.031" fill="#6E7274"/><circle cx="131.284" cy="79.905" r="1.884" fill="#AFAFB0" stroke="#fff" stroke-miterlimit="10"/><circle cx="156.969" cy="80.095" r="3.031" fill="#6E7274"/><circle cx="156.969" cy="80.095" r="1.884" fill="#AFAFB0" stroke="#fff" stroke-miterlimit="10"/><circle cx="79.885" cy="80.095" r="1.211" fill="#464646"/></svg>