<svg xmlns="http://www.w3.org/2000/svg" viewBox="0 0 160 160" enable-background="new 0 0 160 160"><path fill="#7EA8D3" d="M77.938 79.653H1.518v.883h76.46c-.022-.294-.034-.588-.04-.883z"/><path fill="#6E7274" d="M80.446 79.653c.008.295.023.59.05.883h77.757v-.883H80.446z"/><circle fill="#7EA8D3" cx="3.031" cy="80.095" r="3.031"/><circle fill="#D2E3E6" stroke="#fff" stroke-miterlimit="10" cx="3.031" cy="80.095" r="1.884"/><circle fill="#7EA8D3" cx="27.662" cy="80.095" r="3.031"/><circle fill="#D2E3E6" stroke="#fff" stroke-miterlimit="10" cx="27.662" cy="80.095" r="1.884"/><circle fill="#7EA8D3" cx="54.447" cy="80.095" r="3.031"/><circle fill="#D2E3E6" stroke="#fff" stroke-miterlimit="10" cx="54.447" cy="80.095" r="1.884"/><circle fill="#7EA8D3" cx="79.885" cy="80.095" r="3.031"/><circle fill="#D2E3E6" stroke="#fff" stroke-miterlimit="10" cx="79.885" cy="80.095" r="1.884"/><circle fill="#6E7274" cx="105.671" cy="80.095" r="3.031"/><circle fill="#AFAFB0" stroke="#fff" stroke-miterlimit="10" cx="105.671" cy="80.095" r="1.884"/><circle fill="#6E7274" cx="131.284" cy="79.905" r="3.031"/><circle fill="#AFAFB0" stroke="#fff" stroke-miterlimit="10" cx="131.284" cy="79.905" r="1.884"/><circle fill="#6E7274" cx="156.969" cy="80.095" r="3.031"/><circle fill="#AFAFB0" stroke="#fff" stroke-miterlimit="10" cx="156.969" cy="80.095" r="1.884"/><circle fill="#464646" cx="79.885" cy="80.095" r="1.211"/></svg>