<svg xmlns="http://www.w3.org/2000/svg" viewBox="0 0 634.164 24.776" enable-background="new 0 0 634.164 24.776"><path fill="#7EA8D3" d="M308.91 11.013H6.012v3.5h303.05c-.082-1.164-.13-2.33-.154-3.5z"/><path fill="#6E7274" d="M318.85 11.013c.03 1.17.09 2.34.192 3.5h308.196v-3.5h-308.39z"/><circle fill="#7EA8D3" cx="12.013" cy="12.763" r="12.013"/><circle fill="#D2E3E6" stroke="#fff" stroke-miterlimit="10" cx="12.013" cy="12.763" r="7.468"/><circle fill="#7EA8D3" cx="109.64" cy="12.763" r="12.013"/><circle fill="#D2E3E6" stroke="#fff" stroke-miterlimit="10" cx="109.64" cy="12.763" r="7.468"/><circle fill="#7EA8D3" cx="215.801" cy="12.763" r="12.013"/><circle fill="#D2E3E6" stroke="#fff" stroke-miterlimit="10" cx="215.801" cy="12.763" r="7.468"/><circle fill="#7EA8D3" cx="316.626" cy="12.763" r="12.013"/><circle fill="#D2E3E6" stroke="#fff" stroke-miterlimit="10" cx="316.626" cy="12.763" r="7.468"/><circle fill="#6E7274" cx="418.831" cy="12.763" r="12.013"/><circle fill="#AFAFB0" stroke="#fff" stroke-miterlimit="10" cx="418.831" cy="12.763" r="7.468" style="position:absolute;left:-51px"/><circle fill="#6E7274" cx="520.346" cy="12.013" r="12.013"/><circle fill="#AFAFB0" stroke="#fff" stroke-miterlimit="10" cx="520.346" cy="12.013" r="7.468"/><circle fill="#6E7274" cx="622.151" cy="12.763" r="12.013"/><circle fill="#AFAFB0" stroke="#fff" stroke-miterlimit="10" cx="622.151" cy="12.763" r="7.468"/><circle fill-rule="evenodd" clip-rule="evenodd" fill="#464646" cx="316.626" cy="12.763" r="4.801"/></svg>