<?xml version="1.0" encoding="utf-8"?>
<!-- Generator: Adobe Illustrator 18.1.0, SVG Export Plug-In . SVG Version: 6.00 Build 0)  -->
<!DOCTYPE svg PUBLIC "-//W3C//DTD SVG 1.1//EN" "http://www.w3.org/Graphics/SVG/1.1/DTD/svg11.dtd">
<svg version="1.1" id="Layer_1" xmlns="http://www.w3.org/2000/svg" xmlns:xlink="http://www.w3.org/1999/xlink" x="0px" y="0px"
	 viewBox="0 76.874 160 6.251" style="enable-background:new 0 76.874 160 6.251;" xml:space="preserve">
<path style="fill:#7EA8D3;" d="M77.938,79.653H1.517v0.883h76.46C77.956,80.242,77.944,79.948,77.938,79.653z"/>
<path style="fill:#6E7274;" d="M80.446,79.653c0.008,0.295,0.023,0.59,0.049,0.883h77.758v-0.883H80.446z"/>
<circle style="fill:#7EA8D3;" cx="3.031" cy="80.095" r="3.031"/>
<circle style="fill:#D2E3E6;stroke:#FFFFFF;stroke-miterlimit:10;" cx="3.031" cy="80.095" r="1.884"/>
<circle style="fill:#7EA8D3;" cx="27.662" cy="80.095" r="3.031"/>
<circle style="fill:#D2E3E6;stroke:#FFFFFF;stroke-miterlimit:10;" cx="27.662" cy="80.095" r="1.884"/>
<circle style="fill:#7EA8D3;" cx="54.447" cy="80.095" r="3.031"/>
<circle style="fill:#D2E3E6;stroke:#FFFFFF;stroke-miterlimit:10;" cx="54.447" cy="80.095" r="1.884"/>
<circle style="fill:#7EA8D3;" cx="79.885" cy="80.095" r="3.031"/>
<circle style="fill:#D2E3E6;stroke:#FFFFFF;stroke-miterlimit:10;" cx="79.885" cy="80.095" r="1.884"/>
<circle style="fill:#6E7274;" cx="105.671" cy="80.095" r="3.031"/>
<circle style="fill:#AFAFB0;stroke:#FFFFFF;stroke-miterlimit:10;" cx="105.671" cy="80.095" r="1.884"/>
<circle style="fill:#6E7274;" cx="131.284" cy="79.905" r="3.031"/>
<circle style="fill:#AFAFB0;stroke:#FFFFFF;stroke-miterlimit:10;" cx="131.284" cy="79.905" r="1.884"/>
<circle style="fill:#6E7274;" cx="156.969" cy="80.095" r="3.031"/>
<circle style="fill:#AFAFB0;stroke:#FFFFFF;stroke-miterlimit:10;" cx="156.969" cy="80.095" r="1.884"/>
<circle style="fill:#464646;" cx="79.885" cy="80.095" r="1.211"/>
</svg>
