<svg xmlns="http://www.w3.org/2000/svg" xmlns:xlink="http://www.w3.org/1999/xlink" version="1.1" id="Layer_1" x="0px" y="0px" viewBox="0 0 634.164 24.776" enable-background="new 0 0 634.164 24.776" xml:space="preserve">
<path fill="#7EA8D3" d="M308.909,11.013H6.013v3.5h303.05C308.981,13.349,308.933,12.182,308.909,11.013z"/>
<path fill="#6E7274" d="M318.849,11.013c0.031,1.171,0.092,2.339,0.193,3.5h308.196v-3.5H318.849z"/>
<circle fill="#7EA8D3" cx="12.013" cy="12.763" r="12.013"/>
<circle fill="#D2E3E6" stroke="#FFFFFF" stroke-miterlimit="10" cx="12.013" cy="12.763" r="7.468"/>
<circle fill="#7EA8D3" cx="109.64" cy="12.763" r="12.013"/>
<circle fill="#D2E3E6" stroke="#FFFFFF" stroke-miterlimit="10" cx="109.64" cy="12.763" r="7.468"/>
<circle fill="#7EA8D3" cx="215.801" cy="12.763" r="12.013"/>
<circle fill="#D2E3E6" stroke="#FFFFFF" stroke-miterlimit="10" cx="215.801" cy="12.763" r="7.468"/>
<circle fill="#7EA8D3" cx="316.626" cy="12.763" r="12.013"/>
<circle fill="#D2E3E6" stroke="#FFFFFF" stroke-miterlimit="10" cx="316.626" cy="12.763" r="7.468"/>
<circle fill="#6E7274" cx="418.831" cy="12.763" r="12.013"/>
<circle fill="#AFAFB0" stroke="#FFFFFF" stroke-miterlimit="10" cx="418.831" cy="12.763" r="7.468" style="position: absolute;left: -51px;"/>
<circle fill="#6E7274" cx="520.346" cy="12.013" r="12.013"/>
<circle fill="#AFAFB0" stroke="#FFFFFF" stroke-miterlimit="10" cx="520.346" cy="12.013" r="7.468"/>
<circle fill="#6E7274" cx="622.151" cy="12.763" r="12.013"/>
<circle fill="#AFAFB0" stroke="#FFFFFF" stroke-miterlimit="10" cx="622.151" cy="12.763" r="7.468"/>
<g id="Ellipse_3_3_">
  <g>
    <circle fill-rule="evenodd" clip-rule="evenodd" fill="#464646" cx="316.626" cy="12.763" r="4.801"/>
  </g>
</g>
</svg>
